<?xml version="1.0" encoding="UTF-8" standalone="no"?>
<svg
   xmlns:dc="http://purl.org/dc/elements/1.1/"
   xmlns:cc="http://creativecommons.org/ns#"
   xmlns:rdf="http://www.w3.org/1999/02/22-rdf-syntax-ns#"
   xmlns:svg="http://www.w3.org/2000/svg"
   xmlns="http://www.w3.org/2000/svg"
   id="svg8"
   version="1.1"
   viewBox="0 0 210 188"
   height="188mm"
   width="210mm">
  <defs
     id="defs2" />
  <metadata
     id="metadata5">
    <rdf:RDF>
      <cc:Work
         rdf:about="">
        <dc:format>image/svg+xml</dc:format>
        <dc:type
           rdf:resource="http://purl.org/dc/dcmitype/StillImage" />
        <dc:title></dc:title>
      </cc:Work>
    </rdf:RDF>
  </metadata>
  <g
     transform="translate(0,-109)"
     id="layer1">
    <g
       transform="matrix(1.7457579,0,0,1.7430485,-4.2100434,-214.12309)"
       id="g3717">
      <path
         id="path3723"
         d="m 53.220903,292.78978 c -0.0905,-0.24238 -0.203638,-5.63421 -0.251429,-11.98184 l -0.08689,-11.54115 -7.600244,-3.82145 c -10.786996,-5.42376 -16.494135,-7.52775 -25.817414,-9.51781 -2.454063,-0.52382 -2.909448,-1.41439 -1.350339,-2.64079 1.284148,-1.01011 4.615821,-0.96795 10.322235,0.13063 5.627767,1.08343 6.200358,1.09609 4.808582,0.10632 -0.568445,-0.40426 -2.196264,-1.91173 -3.617376,-3.34994 -1.421112,-1.43822 -3.126446,-3.03696 -3.789631,-3.55276 -1.013419,-0.78821 -1.143607,-1.03525 -0.816018,-1.54844 0.539645,-0.8454 2.70419,-0.7563 4.629221,0.19056 0.839702,0.41302 2.989414,1.99078 4.777136,3.50613 3.099902,2.62761 3.812091,3.09181 3.812091,2.48469 0,-0.14877 -1.166308,-2.32821 -2.591795,-4.84319 -1.425488,-2.51498 -2.501551,-4.71872 -2.391252,-4.89718 0.110299,-0.17847 0.733554,-0.32449 1.385012,-0.32449 1.592038,0 3.32659,1.60183 6.204801,5.73004 1.237539,1.775 2.397528,3.22727 2.577749,3.22727 0.406128,0 0.415822,0.20715 -0.193454,-4.13414 -0.279223,-1.98956 -0.547498,-3.92744 -0.596171,-4.3064 -0.06607,-0.51444 0.138528,-0.71539 0.807491,-0.79308 1.526422,-0.17726 2.798884,1.68784 3.940614,5.77589 0.920835,3.29713 1.076875,3.59366 2.295962,4.36324 1.417708,0.89496 1.533729,1.1348 0.877344,1.81364 -0.280143,0.28973 0.05095,0.24268 0.947408,-0.13464 0.757926,-0.319 1.561004,-0.65587 1.784613,-0.7486 0.817927,-0.33917 1.079694,-2.16078 0.892951,-6.21395 -0.222186,-4.82249 0.09504,-6.13573 1.855552,-7.68148 1.723248,-1.51303 2.380229,-1.27328 2.269713,0.82827 -0.07156,1.36084 0.185844,2.23287 1.419875,4.81027 2.977024,6.21783 3.996459,10.53951 3.993269,16.92859 -0.0014,2.46326 -0.177414,5.09878 -0.391521,5.85671 -0.237031,0.83908 -0.469614,6.29611 -0.594676,13.95273 l -0.205394,12.57468 -4.571739,0.0962 c -3.468322,0.073 -4.611451,-0.0102 -4.736274,-0.34451 z M 43.8457,254.74357 c -0.233245,-0.0944 -0.698337,-0.10011 -1.033536,-0.0128 -0.3352,0.0873 -0.144361,0.16456 0.424084,0.17158 0.568444,0.007 0.842696,-0.0644 0.609452,-0.15882 z m 22.01498,38.021 c -0.235429,-0.28367 -0.41361,-3.6978 -0.489947,-9.38795 -0.06856,-5.11026 -0.319439,-10.25397 -0.585454,-12.00344 -0.853108,-5.61055 0.431381,-12.49561 3.474638,-18.62458 1.089715,-2.19463 1.34443,-3.06519 1.284047,-4.38856 -0.04143,-0.90796 0.03593,-1.7621 0.171915,-1.89808 0.428452,-0.42846 2.65978,1.01974 3.261143,2.11657 0.472457,0.86172 0.560893,1.88898 0.490885,5.70199 -0.04696,2.558 0.03056,4.80952 0.172256,5.00338 0.35853,0.49048 2.053177,1.54235 2.484854,1.54235 0.196148,0 0.356632,-0.21723 0.356632,-0.48274 0,-0.26551 0.52073,-0.78997 1.157174,-1.16549 1.024403,-0.60441 1.245001,-1.01349 1.922604,-3.56527 0.879136,-3.31076 2.064309,-5.36085 3.274765,-5.66466 0.98199,-0.24646 1.606122,0.0428 1.380846,0.63996 -0.370161,0.98123 -1.101591,7.33296 -0.87248,7.57663 0.137963,0.14674 1.283596,-1.20024 2.545853,-2.99327 2.515137,-3.57274 4.114723,-5.02503 5.534712,-5.02503 1.434865,0 1.420984,0.78931 -0.05868,3.33661 -2.306879,3.97136 -3.226499,5.96601 -2.746552,5.95724 0.240045,-0.004 1.599172,-1.02317 3.020284,-2.26397 3.093803,-2.70125 4.181269,-3.39686 6.113647,-3.91065 1.04816,-0.27869 1.658432,-0.28419 2.153199,-0.0194 0.720129,0.3854 0.957049,1.37881 0.328839,1.37881 -0.1989,0 -1.710445,1.36475 -3.358993,3.03277 -1.648552,1.66803 -3.375587,3.29228 -3.83786,3.60946 -0.462269,0.31717 -0.754643,0.66253 -0.649718,0.76745 0.104928,0.10493 2.315079,-0.20157 4.911445,-0.6811 5.923376,-1.094 8.047556,-1.12669 9.297996,-0.1431 0.59202,0.46569 0.88863,0.99325 0.82162,1.46136 -0.09,0.62877 -0.51984,0.81074 -3.03323,1.28415 -6.720766,1.26587 -12.826296,3.52509 -22.148634,8.1956 l -7.30714,3.6609 -0.172256,8.26828 c -0.09474,4.54756 -0.297679,8.46208 -0.450973,8.69893 -0.398979,0.61645 -7.934464,0.60293 -8.447436,-0.0152 z m 43.00509,-35.03054 c 0,-0.60802 -0.31467,-1.50553 -0.69926,-1.99446 -0.74243,-0.94385 -0.47568,-1.44266 0.77745,-1.45377 0.32722,-0.003 0.8489,-0.39285 1.15928,-0.86656 0.31038,-0.4737 0.75416,-0.86128 0.98618,-0.86128 0.23202,0 0.59844,0.38758 0.81427,0.86128 0.26394,0.57928 0.67019,0.86128 1.24076,0.86128 1.20452,0 1.42774,0.61013 0.56082,1.53292 -0.48882,0.52032 -0.70848,1.13332 -0.63899,1.78319 0.0883,0.82619 -0.008,0.97074 -0.58313,0.87231 -1.10662,-0.18949 -2.01194,-0.15178 -2.84223,0.11838 -0.69522,0.22621 -0.77515,0.13822 -0.77515,-0.85329 z m 1.81912,-6.57467 c -3.94851,-1.63566 -9.30398,-2.99552 -13.943028,-3.54041 -4.430648,-0.52041 -4.655666,-0.92732 -1.630086,-2.94773 2.66913,-1.78237 5.273284,-2.57057 8.586314,-2.59883 2.42328,-0.0207 4.1091,0.2901 3.71447,0.68473 -0.0956,0.0956 -1.45456,0.31986 -3.01995,0.49839 -2.88507,0.32905 -5.995737,1.49482 -5.772855,2.16347 0.06663,0.19988 1.430295,0.71143 3.030375,1.13678 5.02116,1.33475 10.4192,3.62908 12.38437,5.26373 1.25566,1.04447 0.32039,0.86015 -3.34961,-0.66013 z m -45.572135,-1.12622 c 0,-4.29979 1.65701,-10.37811 3.678868,-13.49498 0.491653,-0.75793 2.408658,-3.54847 4.260014,-6.20122 3.701188,-5.30329 5.707632,-8.84428 6.897349,-12.17247 0.640031,-1.79046 0.840427,-2.07339 1.117672,-1.57798 0.422696,0.75532 -0.235894,7.21706 -0.996679,9.7789 -0.294031,0.99011 -0.476481,1.8583 -0.40545,1.92934 0.07103,0.071 0.74046,-0.2863 1.487617,-0.79407 6.213958,-4.22305 11.597987,-6.85772 17.386514,-8.50805 1.82958,-0.52162 4.31462,-1.54992 5.65331,-2.3393 2.60818,-1.53797 7.4467,-5.97902 9.37272,-8.60279 2.08334,-2.83807 2.58286,-1.7771 0.72304,1.53574 -1.71529,3.05539 -3.94967,5.6395 -6.95776,8.04679 -3.62394,2.90015 -6.76271,4.47948 -13.622724,6.8545 -6.705777,2.32163 -10.310274,3.97416 -13.888306,6.3673 -6.234712,4.17003 -9.855581,9.13887 -12.670347,17.38724 -0.709491,2.07909 -1.457798,3.8361 -1.66291,3.90447 -0.242044,0.0807 -0.372928,-0.66104 -0.372928,-2.11342 z M 5.167679,248.08487 c 0,-0.60647 -0.3079485,-1.49417 -0.6843299,-1.97266 -0.8049125,-1.02328 -0.6361778,-1.47802 0.5484292,-1.47802 0.5914219,0 1.0388251,-0.31959 1.4438437,-1.03136 0.3227801,-0.56725 0.741903,-1.03135 0.9313846,-1.03135 0.1894815,0 0.6086044,0.4641 0.9313845,1.03135 0.4050186,0.71177 0.8524218,1.03136 1.4438437,1.03136 1.2039142,0 1.4401352,0.60612 0.5892172,1.51188 -0.4341762,0.46216 -0.7251179,1.22718 -0.7251179,1.90666 0,1.06959 -0.054444,1.12028 -0.9474078,0.88196 -0.5210743,-0.13907 -1.1024382,-0.25285 -1.2919197,-0.25285 -0.1894816,0 -0.7708455,0.11378 -1.2919198,0.25285 -0.888867,0.23723 -0.9474078,0.18471 -0.9474078,-0.84982 z m 13.091453,0.0835 c 0,-0.545 -0.227614,-1.29184 -0.505811,-1.65965 -0.654882,-0.86583 -0.653614,-1.18551 0.0047,-1.18551 0.292835,0 0.920004,-0.38757 1.393708,-0.86128 0.473703,-0.4737 0.924701,-0.86128 1.002216,-0.86128 0.07752,0 0.528513,0.38758 1.002217,0.86128 0.473704,0.47371 1.100872,0.86128 1.393707,0.86128 0.676083,0 0.683346,0.47941 0.01566,1.03354 -0.284222,0.23588 -0.516768,0.97058 -0.516768,1.63267 0,1.08903 -0.07389,1.18116 -0.775151,0.9664 -1.068613,-0.32727 -1.3485,-0.33304 -2.239328,-0.0462 -0.682052,0.21964 -0.775152,0.13061 -0.775152,-0.74128 z m 97.222128,-1.83729 c 0.0411,-0.53964 -0.20141,-1.27134 -0.54854,-1.65492 -0.70682,-0.78102 -0.4858,-1.42002 0.49117,-1.42002 0.36341,0 0.9147,-0.38757 1.22508,-0.86128 0.31038,-0.4737 0.71798,-0.86128 0.90577,-0.86128 0.18779,0 0.6463,0.38758 1.01892,0.86128 0.37261,0.47371 0.96714,0.86128 1.32116,0.86128 0.97733,0 1.09333,0.51415 0.33387,1.47965 -0.37709,0.47939 -0.64628,1.22248 -0.5982,1.65131 0.0819,0.73019 -0.0494,0.78387 -2.06776,0.8455 l -2.15518,0.0658 z m -34.789758,-2.13006 c 0.156588,-1.38925 0.0584,-1.7107 -0.814395,-2.66629 -0.545848,-0.59763 -0.916443,-1.20959 -0.823542,-1.3599 0.0929,-0.15032 0.766832,-0.36891 1.497628,-0.48578 1.065083,-0.17031 1.458102,-0.45271 1.980795,-1.42329 0.80036,-1.48618 1.312739,-1.53094 1.878889,-0.16413 0.492063,1.18795 1.271687,1.70939 2.555738,1.70939 1.135708,0 1.131797,0.68185 -0.01002,1.74864 -0.767304,0.71688 -0.86672,1.03631 -0.70174,2.25468 0.105713,0.78071 0.104621,1.50706 -0.0024,1.61411 -0.107054,0.10706 -0.727626,-0.0595 -1.37905,-0.37016 -1.200342,-0.5724 -1.251271,-0.5662 -3.705853,0.4513 -0.599909,0.24868 -0.639325,0.14033 -0.476012,-1.30857 z M 2.4115835,241.64368 c 0,-0.52053 2.4778663,-2.71698 4.1341432,-3.66461 1.8890075,-1.08079 7.9691163,-3.13239 11.0243823,-3.71993 1.23163,-0.23684 2.373415,-0.54416 2.5373,-0.68292 0.163885,-0.13876 -0.378721,-0.67543 -1.205791,-1.1926 -2.637561,-1.64927 -4.165272,-3.00649 -5.173272,-4.59595 -1.538666,-2.42622 -1.170949,-2.61115 1.344051,-0.67592 2.828779,2.17667 7.473858,4.42853 11.589008,5.61817 3.681517,1.06428 9.528809,2.28843 9.883601,2.06915 0.140209,-0.0866 0.03262,-0.97105 -0.23905,-1.96533 -0.271686,-0.99427 -0.501162,-3.16231 -0.50995,-4.81787 -0.02942,-5.54424 0.674413,-5.76218 2.274292,-0.70422 0.606355,1.91698 1.771002,4.8162 2.588105,6.44272 0.817099,1.62651 1.394463,3.04847 1.283027,3.15991 -0.111432,0.11143 -2.268655,0.0111 -4.793828,-0.22297 -10.951598,-1.01513 -22.641728,0.38255 -30.5480291,3.65236 -3.7569252,1.55375 -4.1879894,1.68756 -4.1879894,1.30001 z m 48.1170445,-6.10704 c -0.09584,-0.39657 -0.276788,-1.04851 -0.4021,-1.44875 -0.165387,-0.52822 -0.05496,-0.78519 0.402824,-0.9374 0.346868,-0.11534 0.910252,-0.40799 1.251966,-0.65034 0.522611,-0.37065 0.675812,-0.34488 0.964527,0.16225 0.188775,0.33159 0.558922,0.6029 0.822546,0.6029 0.678964,0 1.013479,0.67784 0.558868,1.13245 -0.210869,0.21087 -0.383397,0.72596 -0.383397,1.14465 0,0.6738 -0.174654,0.7586 -1.520487,0.73826 -1.247636,-0.0188 -1.551757,-0.15238 -1.694747,-0.74402 z m 58.479502,-0.68283 c 0.20094,-1.07108 0.0958,-1.44323 -0.66257,-2.34446 -0.97774,-1.16198 -0.74884,-1.64004 0.79022,-1.65036 0.53092,-0.004 1.01811,-0.39738 1.4982,-1.21107 0.39129,-0.66318 0.81239,-1.19982 0.93579,-1.19252 0.12339,0.007 0.5369,0.51006 0.91891,1.11724 0.44324,0.70452 1.05623,1.16717 1.69414,1.27865 1.25903,0.22002 1.44206,0.73606 0.54804,1.54514 -0.50169,0.45402 -0.69741,1.06251 -0.69741,2.16823 0,1.44172 -0.0481,1.52089 -0.77515,1.27598 -1.00504,-0.33856 -2.62608,-0.33298 -3.66562,0.0126 -0.79312,0.26366 -0.81462,0.2269 -0.58455,-0.99945 z M 5.8201973,233.38828 c -0.020078,-0.16238 -0.011703,-0.69002 0.018611,-1.17253 0.030314,-0.48251 -0.2633201,-1.28211 -0.6525187,-1.7769 -0.9132815,-1.16105 -0.9020794,-1.21024 0.3375759,-1.48252 0.5748653,-0.12626 1.2903318,-0.60367 1.589926,-1.06091 0.6917851,-1.05579 1.2857909,-1.05656 1.7661542,-0.002 0.2288961,0.50237 0.7937003,0.92042 1.4333463,1.06091 1.143383,0.25113 1.359281,0.87424 0.538835,1.55515 -0.301512,0.25023 -0.516768,1.00206 -0.516768,1.80493 0,1.27352 -0.05775,1.35688 -0.7751518,1.11888 -1.0351708,-0.34343 -2.3610667,-0.35202 -3.1006074,-0.0201 -0.3315927,0.14883 -0.6193232,0.13774 -0.6394014,-0.0246 z m 59.0115807,-1.12235 c -0.685641,-1.96683 -3.559697,-5.84813 -6.181371,-8.34769 -4.609766,-4.39506 -9.879348,-7.39553 -14.380624,-8.18825 -2.520253,-0.44384 -13.678698,-1.06414 -19.186208,-1.06657 -2.215226,-9.7e-4 -4.112592,-0.13915 -4.216371,-0.30707 -0.218113,-0.35292 1.228891,-0.54663 9.236802,-1.23655 3.198754,-0.27558 5.881395,-0.56654 5.961429,-0.64658 0.08003,-0.08 -0.986827,-0.89474 -2.370796,-1.81048 -1.38397,-0.91573 -3.611112,-2.76909 -4.949204,-4.11858 -2.346998,-2.36699 -5.506964,-6.62302 -5.168607,-6.96137 0.09051,-0.0905 1.140235,0.71988 2.332727,1.80086 4.674275,4.23717 10.162295,7.14985 16.637669,8.83016 2.273778,0.59003 5.375612,1.66363 6.89296,2.38579 2.723584,1.29624 7.863943,4.51166 10.817285,6.76647 0.835001,0.63751 1.605209,1.07208 1.711574,0.96571 0.106368,-0.10636 0.21984,-1.81096 0.252158,-3.788 0.123866,-7.57645 2.919801,-13.91244 7.074601,-16.03206 2.117064,-1.08005 2.194365,-0.81806 0.501051,1.69819 -3.099384,4.60567 -4.593891,13.58057 -4.153074,24.9403 0.158004,4.07174 0.120193,6.11509 -0.113162,6.11509 -0.192751,0 -0.507228,-0.44972 -0.698839,-0.99937 z m 30.372896,0.22421 c -0.08803,-0.14211 -0.06002,-0.42023 0.06224,-0.61804 0.122257,-0.19782 -0.03998,-0.75992 -0.360518,-1.24913 -0.480766,-0.73374 -0.501044,-0.94127 -0.115825,-1.18537 0.256841,-0.16274 0.641857,-0.29827 0.855599,-0.30117 0.213739,-0.003 0.633968,-0.3541 0.933838,-0.78043 l 0.545214,-0.77515 0.61647,0.73846 c 0.339054,0.40616 0.974379,0.84582 1.411827,0.97704 0.752131,0.22561 0.766177,0.28311 0.258384,1.0581 -0.295337,0.45074 -0.536977,1.18513 -0.536977,1.63197 0,0.75055 -0.133692,0.81052 -1.755106,0.78727 -0.965309,-0.0138 -1.827122,-0.14143 -1.915145,-0.28355 z m -45.387277,-3.95517 c -0.114223,-0.11422 -0.207679,-0.63778 -0.207679,-1.16346 0,-0.52568 -0.15503,-1.0516 -0.344512,-1.16871 -0.605028,-0.37392 -0.369368,-1.20579 0.341594,-1.20579 0.377358,0 0.879739,-0.31006 1.116405,-0.68902 0.236666,-0.37897 0.588264,-0.68903 0.781329,-0.68903 0.193064,0 0.544663,0.31006 0.781329,0.68903 0.236666,0.37896 0.739047,0.68902 1.116405,0.68902 0.710962,0 0.946622,0.83187 0.341594,1.20579 -0.189482,0.11711 -0.344512,0.65971 -0.344512,1.20579 0,1.16166 -0.261337,1.38637 -1.205792,1.03682 -0.378963,-0.14026 -1.021902,-0.13076 -1.428753,0.0211 -0.406848,0.15187 -0.833182,0.18267 -0.947408,0.0684 z m -31.963051,-1.99051 c -0.108097,-0.1081 -0.117527,-0.89755 -0.02096,-1.75433 0.158959,-1.41028 0.06733,-1.66948 -0.967708,-2.73736 -0.628811,-0.64877 -1.034737,-1.28814 -0.902059,-1.42082 0.132679,-0.13267 0.892478,-0.32878 1.688442,-0.4358 1.246013,-0.16752 1.554618,-0.38614 2.219811,-1.57261 0.424932,-0.75793 0.93944,-1.37805 1.143352,-1.37805 0.203911,0 0.717857,0.61881 1.142102,1.37513 0.424245,0.75632 1.077222,1.42123 1.451058,1.47759 2.564241,0.38655 2.750268,0.70069 1.307027,2.2071 -0.787711,0.8222 -0.911145,1.22274 -0.842233,2.73299 0.07241,1.58703 0.01658,1.7429 -0.541197,1.5108 -2.657424,-1.1058 -2.405633,-1.1041 -4.946336,-0.0335 -0.29412,0.12394 -0.623207,0.13691 -0.731304,0.0288 z m 53.804136,-3.74658 c 0,-0.42002 -0.183453,-0.94712 -0.407671,-1.17134 -0.224222,-0.22423 -0.340495,-0.44954 -0.258384,-0.50071 0.08211,-0.0512 0.621038,-0.42224 1.197623,-0.8246 1.014319,-0.70783 1.073155,-0.71147 1.813297,-0.11214 0.420729,0.34069 0.956676,0.6898 1.190992,0.7758 0.337277,0.12378 0.336316,0.25146 -0.0046,0.61284 -0.236852,0.25106 -0.430639,0.80013 -0.430639,1.22015 0,0.67541 -0.179164,0.76366 -1.550304,0.76366 -1.37114,0 -1.550304,-0.0883 -1.550304,-0.76366 z M 85.6728,215.71506 c -0.09318,-0.48463 -0.279516,-1.22997 -0.414069,-1.6563 -0.167987,-0.53227 -0.104073,-0.77516 0.203972,-0.77516 0.24674,0 0.810582,-0.34004 1.252987,-0.75566 l 0.804369,-0.75567 0.529288,0.75567 c 0.291109,0.41562 0.743894,0.75566 1.006192,0.75566 0.676924,0 1.010343,0.67856 0.556449,1.13246 -0.210869,0.21087 -0.383397,0.78767 -0.383397,1.28178 0,0.8463 -0.09815,0.89838 -1.693184,0.89838 -1.542407,0 -1.708265,-0.0785 -1.862607,-0.88116 z m -13.849269,-2.04429 c 0.1914,-1.13288 0.0915,-1.48012 -0.658741,-2.28964 -0.486396,-0.52483 -0.884356,-1.073 -0.884356,-1.21816 0,-0.14516 0.620122,-0.36869 1.378048,-0.49674 0.757926,-0.12805 1.378819,-0.33547 1.37976,-0.46092 0.001,-0.12546 0.360322,-0.67627 0.798627,-1.22402 l 0.796918,-0.99592 0.728253,1.2343 c 0.546755,0.92668 1.034601,1.29177 1.957466,1.4649 1.447673,0.27158 1.546731,0.76905 0.372744,1.87196 -0.733245,0.68885 -0.824803,1.00265 -0.636365,2.18107 0.212998,1.33203 0.193381,1.368 -0.607705,1.11434 -1.58325,-0.50134 -2.986991,-0.59869 -3.219037,-0.22323 -0.128303,0.2076 -0.547815,0.37745 -0.932249,0.37745 -0.62088,0 -0.673769,-0.1492 -0.473363,-1.33539 z m 45.310529,0.26125 c 0,-0.49971 -0.23255,-1.10156 -0.51677,-1.33744 -0.74724,-0.62015 -0.63485,-1.29732 0.25838,-1.55678 0.42634,-0.12384 1.1159,-0.63055 1.53236,-1.12603 l 0.7572,-0.90086 0.71117,0.9041 c 0.39115,0.49726 1.18718,1.00866 1.76898,1.13644 l 1.0578,0.23233 -0.71749,0.76373 c -0.40073,0.42656 -0.71749,1.2241 -0.71749,1.80649 v 1.04276 l -2.06707,-0.0281 c -1.99679,-0.0271 -2.06707,-0.059 -2.06707,-0.93665 z m -18.765165,-2.02141 c -0.05608,-0.0975 -0.2028,-0.64824 -0.326042,-1.22382 -0.193148,-0.90207 -0.0724,-1.15866 0.874774,-1.85894 0.939804,-0.69482 1.153363,-0.73972 1.475483,-0.31018 0.20715,0.27623 0.64793,0.60404 0.97953,0.72846 0.66694,0.25025 0.79042,0.7803 0.25838,1.10912 -0.18948,0.11711 -0.34451,0.57148 -0.34451,1.00971 0,0.70874 -0.15557,0.79271 -1.407826,0.75987 -0.774301,-0.0203 -1.453706,-0.1167 -1.509789,-0.21422 z m -8.795792,-6.27453 c 0,-0.34656 -0.193788,-0.95832 -0.43064,-1.35947 -0.347844,-0.58913 -0.344126,-0.76059 0.01933,-0.89176 0.247483,-0.0893 0.737765,-0.47131 1.089519,-0.84887 0.637833,-0.68463 0.642632,-0.68431 1.789357,0.12012 0.632396,0.44362 1.210663,0.84212 1.285033,0.88555 0.07437,0.0434 -0.02704,0.2765 -0.225373,0.51794 -0.198329,0.24143 -0.414207,0.80558 -0.479733,1.25366 -0.101865,0.69658 -0.331434,0.82472 -1.583315,0.88382 -1.214063,0.0573 -1.464175,-0.0385 -1.464175,-0.56099 z M 40.99692,204.49815 c 0,-0.40105 -0.227616,-1.03012 -0.505812,-1.39793 -0.654883,-0.86583 -0.653612,-1.18551 0.0047,-1.18551 0.292835,0 0.927237,-0.39481 1.409777,-0.87735 l 0.877352,-0.87735 0.8131,0.87735 c 0.447204,0.48254 1.053049,0.87735 1.346318,0.87735 0.659092,0 0.66057,0.31942 0.0055,1.18551 -0.278197,0.36781 -0.505812,0.99688 -0.505812,1.39793 0,0.64534 -0.198053,0.72918 -1.72256,0.72918 -1.524507,0 -1.72256,-0.0838 -1.72256,-0.72918 z m 19.63718,-4.05138 c 0,-0.66208 -0.232545,-1.39678 -0.516768,-1.63267 -0.730151,-0.60597 -0.641453,-1.37804 0.158314,-1.37804 0.371294,0 1.076414,-0.42634 1.56693,-0.94741 l 0.891845,-0.94741 0.701133,0.94741 c 0.385623,0.52107 0.989115,0.94741 1.341092,0.94741 0.922737,0 1.179898,0.63601 0.542114,1.34075 -0.302785,0.33458 -0.550517,1.11804 -0.550517,1.74103 0,1.01785 -0.07861,1.10779 -0.775151,0.88686 -0.426334,-0.13523 -1.007698,-0.24587 -1.29192,-0.24587 -0.284223,0 -0.865586,0.11064 -1.29192,0.24587 -0.702877,0.22294 -0.775152,0.13362 -0.775152,-0.95793 z m 45.82009,-0.68902 c 0,-0.66209 -0.23255,-1.39679 -0.51677,-1.63267 -0.74238,-0.61612 -0.63641,-1.37805 0.19168,-1.37805 0.38964,0 1.13456,-0.46654 1.65538,-1.03676 l 0.94694,-1.03677 0.76651,1.03677 c 0.42159,0.57022 1.07193,1.03676 1.44523,1.03676 0.81996,0 0.85883,0.43837 0.13659,1.54064 -0.29816,0.45505 -0.49195,1.18599 -0.43064,1.62431 0.0937,0.67014 -0.0256,0.78125 -0.7498,0.69831 -1.45119,-0.16619 -1.86529,-0.14985 -2.66997,0.10538 -0.70288,0.22294 -0.77515,0.13363 -0.77515,-0.95792 z M 78.893233,196.2506 c 0,-0.46252 -0.155031,-0.93676 -0.344512,-1.05387 -0.592661,-0.36628 -0.378795,-0.8653 0.516768,-1.20579 0.473703,-0.1801 0.861279,-0.48633 0.861279,-0.6805 0,-0.53161 1.027903,-0.42407 1.240436,0.12978 0.1019,0.26555 0.484611,0.5611 0.850466,0.65677 0.702732,0.18377 0.902735,1.08452 0.320682,1.44425 -0.189482,0.11711 -0.344512,0.51383 -0.344512,0.88161 0,0.56285 -0.245389,0.6687 -1.550304,0.6687 -1.413987,0 -1.550303,-0.074 -1.550303,-0.84095 z m -37.551801,-1.4178 c 0,-0.44066 -0.15503,-0.89701 -0.344512,-1.01412 -0.480274,-0.29682 -0.432087,-1.20579 0.06392,-1.20579 0.224639,0 0.768344,-0.33812 1.208231,-0.75137 l 0.799795,-0.75137 0.700003,0.75137 c 0.385006,0.41325 0.926514,0.75137 1.203356,0.75137 0.574099,0 0.674193,0.54277 0.158834,0.86128 -0.189481,0.11711 -0.344512,0.65097 -0.344512,1.18637 0,0.93847 -0.06191,0.97345 -1.722559,0.97345 -1.573276,0 -1.72256,-0.0694 -1.72256,-0.80119 z m -16.332438,0.28097 c -0.116401,-0.1164 -0.111205,-0.96874 0.01154,-1.89408 0.2095,-1.57928 0.15188,-1.75601 -0.939673,-2.88221 -0.965291,-0.99592 -1.075738,-1.25485 -0.650073,-1.52397 0.282033,-0.17832 0.848925,-0.32659 1.259762,-0.32949 1.29144,-0.009 1.845481,-0.39413 2.547565,-1.77032 0.374743,-0.73456 0.830079,-1.33556 1.011858,-1.33556 0.18178,0 0.637116,0.601 1.011859,1.33556 0.702084,1.37619 1.256125,1.7612 2.547565,1.77032 0.410837,0.003 0.977729,0.15117 1.259762,0.32949 0.425664,0.26912 0.315218,0.52805 -0.650073,1.52397 -1.091553,1.1262 -1.149173,1.30293 -0.939674,2.88221 0.122751,0.92534 0.127947,1.77768 0.01154,1.89408 -0.116401,0.1164 -0.89324,-0.11951 -1.726311,-0.52425 l -1.514672,-0.73588 -1.514673,0.73588 c -0.83307,0.40474 -1.60991,0.64065 -1.726311,0.52425 z"
         style="fill:#5198bd;stroke-width:0.34451193" />
      <path
         id="path3721"
         d="M 53.639085,292.30173 C 53.50723,292.16988 53.39935,286.81157 53.39935,280.39439 v -11.66761 l -7.604684,-3.7636 c -10.923764,-5.40623 -17.622796,-7.91337 -24.775343,-9.27227 -3.346647,-0.63583 -3.939547,-1.30549 -2.030083,-2.29291 1.401114,-0.72455 3.47115,-0.54285 10.940473,0.96028 4.641091,0.93397 6.142261,1.08632 10.894951,1.10563 4.547144,0.0185 5.843925,-0.0915 7.407007,-0.62844 2.8595,-0.9822 5.787021,-2.53712 6.188244,-3.28681 0.200195,-0.37406 0.357482,-2.88337 0.357482,-5.70314 0,-5.37707 0.26452,-6.49032 1.797247,-7.56389 1.17802,-0.82512 1.410645,-0.65789 1.170851,0.84171 -0.179763,1.12417 -0.02884,1.75918 0.815653,3.43213 3.860404,7.64742 5.459784,15.49951 4.458349,21.88815 -0.251235,1.60277 -0.516358,8.01817 -0.633557,15.33078 l -0.201536,12.57469 -4.152792,0.0962 c -2.284035,0.0529 -4.260672,-0.0117 -4.392527,-0.14355 z m 12.507206,-7.92441 c 0,-6.08805 -0.142228,-8.91874 -0.558819,-11.12179 -0.707276,-3.74029 -0.470128,-9.39326 0.557551,-13.29056 0.399713,-1.51585 1.447553,-4.3064 2.328532,-6.20122 1.178307,-2.5343 1.605447,-3.87775 1.615641,-5.08155 0.0076,-0.90003 0.09679,-1.63643 0.198149,-1.63643 0.516303,0 1.785581,1.20299 2.281854,2.16268 0.461832,0.89308 0.528723,1.79705 0.374468,5.06063 -0.103292,2.18533 -0.08075,4.35307 0.05008,4.8172 0.291668,1.03467 2.495224,2.37655 5.742611,3.49702 3.623167,1.25014 9.791584,1.1316 17.154093,-0.32966 5.593659,-1.11019 9.064589,-1.35631 10.241869,-0.72625 0.90278,0.48316 0.84208,1.31966 -0.10877,1.49901 -8.109763,1.5296 -14.762798,3.9157 -24.450991,8.76929 l -7.330238,3.67232 -0.172256,8.44054 -0.172256,8.44054 -3.87576,0.0974 -3.875759,0.0974 z m 17.193523,-22.51414 c -1.438755,-0.14114 -3.443931,-0.53165 -4.455952,-0.86779 l -1.840035,-0.61116 1.269217,-1.0182 c 0.698067,-0.56001 1.269212,-1.18895 1.269212,-1.39764 0,-1.06234 1.79016,-6.04209 2.412011,-6.70956 0.870561,-0.93444 1.90326,-1.04785 1.567206,-0.1721 -0.477043,1.24316 -1.178545,7.84957 -0.866879,8.16385 0.472009,0.47595 1.522426,-0.62092 3.858544,-4.02919 2.158027,-3.14844 3.486875,-4.38599 4.709579,-4.38599 0.96084,0 0.925676,0.176 -0.511277,2.55907 -1.745793,2.89526 -3.666451,6.78106 -3.45582,6.99169 0.462101,0.4621 1.995424,-0.43723 4.51681,-2.64924 3.589036,-3.14864 6.940548,-4.84155 7.828031,-3.95407 0.286434,0.28643 -6.511441,6.78491 -7.770859,7.42861 -1.369256,0.69984 -5.118944,0.98633 -8.529788,0.65172 z m 25.525956,-4.12915 c 0,-0.60802 -0.31467,-1.50553 -0.69926,-1.99446 -0.74243,-0.94385 -0.47568,-1.44266 0.77745,-1.45377 0.32722,-0.003 0.8489,-0.39285 1.15928,-0.86656 0.31038,-0.4737 0.75416,-0.86128 0.98618,-0.86128 0.23202,0 0.59844,0.38758 0.81427,0.86128 0.26394,0.57928 0.67019,0.86128 1.24076,0.86128 1.20452,0 1.42774,0.61013 0.56082,1.53292 -0.48882,0.52032 -0.70848,1.13332 -0.63899,1.78319 0.0883,0.82619 -0.008,0.97074 -0.58313,0.87231 -1.10662,-0.18949 -2.01194,-0.15178 -2.84223,0.11838 -0.69522,0.22621 -0.77515,0.13822 -0.77515,-0.85329 z m -72.199672,-3.77706 c -0.96084,-0.15135 -2.123568,-0.47158 -2.583839,-0.71162 -0.78483,-0.4093 -8.281244,-7.44641 -8.530957,-8.00827 -0.06316,-0.14211 0.410248,-0.25838 1.05202,-0.25838 1.687684,0 4.204263,1.40213 7.158847,3.98858 3.303357,2.89178 4.749201,3.80245 5.246883,3.30477 0.26803,-0.26803 -0.406669,-1.76169 -2.392932,-5.29749 -1.521413,-2.70832 -2.656165,-5.04624 -2.521667,-5.1954 0.338546,-0.37543 2.086256,0.3347 3.055581,1.24155 0.442212,0.41371 1.974574,2.41878 3.405242,4.4557 1.765707,2.51394 2.813175,3.70351 3.261099,3.70351 0.604232,0 0.640544,-0.18158 0.430619,-2.1532 -0.126095,-1.18426 -0.426688,-3.31593 -0.667988,-4.73704 -0.2413,-1.42111 -0.310402,-2.72158 -0.153559,-2.88993 0.160938,-0.17274 0.730696,0.13944 1.307888,0.71664 0.958321,0.95832 2.046225,3.78392 2.683306,6.96932 0.154366,0.77184 0.651907,1.43731 1.574013,2.10528 1.264046,0.91567 1.30546,0.99962 0.66279,1.34357 -2.100028,1.1239 -9.639951,1.9497 -12.987346,1.42241 z m 29.259661,-6.89818 c 0.287278,-3.09099 1.856116,-7.73985 3.527357,-10.45243 0.723558,-1.1744 2.530696,-3.82594 4.015859,-5.89231 2.962706,-4.12214 5.056653,-7.55843 6.126035,-10.05319 0.381471,-0.88994 0.77682,-1.53484 0.878547,-1.43311 0.266353,0.26635 -0.490754,5.47598 -1.076207,7.40537 -0.973039,3.20668 -0.7074,3.2236 3.821285,0.2434 4.805135,-3.16213 9.51318,-5.44999 14.212065,-6.9063 2.215435,-0.68662 5.0625,-1.78725 6.32681,-2.44584 2.55051,-1.32859 6.72536,-4.75453 8.50184,-6.97673 0.63483,-0.79412 1.23614,-1.36196 1.33624,-1.26187 0.37824,0.37825 -2.06084,3.62074 -4.4676,5.93919 -4.35938,4.19942 -7.38968,5.87387 -16.109768,8.90176 -3.126446,1.0856 -7.07972,2.67096 -8.785054,3.52301 -8.808816,4.40124 -14.085936,10.26253 -17.230286,19.13765 -0.520265,1.46848 -1.025612,2.66997 -1.122992,2.66997 -0.09738,0 -0.07674,-1.07936 0.04587,-2.39857 z m -60.75808,1.02608 c 0,-0.60647 -0.3079485,-1.49417 -0.6843299,-1.97266 -0.8049125,-1.02328 -0.6361778,-1.47802 0.5484292,-1.47802 0.5914219,0 1.0388251,-0.31959 1.4438437,-1.03136 0.3227801,-0.56725 0.741903,-1.03135 0.9313846,-1.03135 0.1894815,0 0.6086044,0.4641 0.9313845,1.03135 0.4050186,0.71177 0.8524218,1.03136 1.4438437,1.03136 1.2039142,0 1.4401352,0.60612 0.5892172,1.51188 -0.4341762,0.46216 -0.7251179,1.22718 -0.7251179,1.90666 0,1.06959 -0.054444,1.12028 -0.9474078,0.88196 -0.5210743,-0.13907 -1.1024382,-0.25285 -1.2919197,-0.25285 -0.1894816,0 -0.7708455,0.11378 -1.2919198,0.25285 -0.888867,0.23723 -0.9474078,0.18471 -0.9474078,-0.84982 z m 13.091453,0.0835 c 0,-0.545 -0.227614,-1.29184 -0.505811,-1.65965 -0.654882,-0.86583 -0.653614,-1.18551 0.0047,-1.18551 0.292835,0 0.920004,-0.38757 1.393708,-0.86128 0.473703,-0.4737 0.924701,-0.86128 1.002216,-0.86128 0.07752,0 0.528513,0.38758 1.002217,0.86128 0.473704,0.47371 1.100872,0.86128 1.393707,0.86128 0.676083,0 0.683346,0.47941 0.01566,1.03354 -0.284222,0.23588 -0.516768,0.97058 -0.516768,1.63267 0,1.08903 -0.07389,1.18116 -0.775151,0.9664 -1.068613,-0.32727 -1.3485,-0.33304 -2.239328,-0.0462 -0.682052,0.21964 -0.775152,0.13061 -0.775152,-0.74128 z m 83.371888,-0.29251 c -2.179038,-0.4361 -4.865828,-0.8915 -5.970647,-1.01201 -1.962591,-0.21408 -1.994837,-0.2345 -1.403111,-0.88835 0.797983,-0.88177 4.471397,-2.66334 5.995708,-2.90788 l 1.20579,-0.19344 -1.32761,0.69519 c -1.785137,0.93476 -2.289761,1.38789 -2.289761,2.05607 0,0.42574 0.901863,0.79648 3.712021,1.52595 2.0416,0.52996 3.94073,1.1082 4.22027,1.28498 0.6287,0.39758 0.67813,0.40427 -4.14266,-0.56051 z m 13.85024,-1.54478 c 0.0411,-0.53964 -0.20141,-1.27134 -0.54854,-1.65492 -0.70682,-0.78102 -0.4858,-1.42002 0.49117,-1.42002 0.36341,0 0.9147,-0.38757 1.22508,-0.86128 0.31038,-0.4737 0.71798,-0.86128 0.90577,-0.86128 0.18779,0 0.6463,0.38758 1.01892,0.86128 0.37261,0.47371 0.96714,0.86128 1.32116,0.86128 0.97733,0 1.09333,0.51415 0.33387,1.47965 -0.37709,0.47939 -0.64628,1.22248 -0.5982,1.65131 0.0819,0.73019 -0.0494,0.78387 -2.06776,0.8455 l -2.15518,0.0658 z m -34.789758,-2.13006 c 0.156588,-1.38925 0.0584,-1.7107 -0.814395,-2.66629 -0.545848,-0.59763 -0.916443,-1.20959 -0.823542,-1.3599 0.0929,-0.15032 0.766832,-0.36891 1.497628,-0.48578 1.065083,-0.17031 1.458102,-0.45271 1.980795,-1.42329 0.80036,-1.48618 1.312739,-1.53094 1.878889,-0.16413 0.492063,1.18795 1.271687,1.70939 2.555738,1.70939 1.135708,0 1.131797,0.68185 -0.01002,1.74864 -0.767304,0.71688 -0.86672,1.03631 -0.70174,2.25468 0.105713,0.78071 0.104621,1.50706 -0.0024,1.61411 -0.107054,0.10706 -0.727626,-0.0595 -1.37905,-0.37016 -1.200342,-0.5724 -1.251271,-0.5662 -3.705853,0.4513 -0.599909,0.24868 -0.639325,0.14033 -0.476012,-1.30857 z M 4.8198794,239.76339 c 2.0211316,-1.68132 7.1873866,-3.66895 12.7502296,-4.90544 2.327241,-0.51729 3.650686,-0.97541 3.710775,-1.28449 0.05295,-0.27234 -0.606619,-0.85036 -1.522854,-1.33458 -1.605804,-0.84863 -5.444576,-4.10005 -5.167652,-4.37698 0.07962,-0.0796 1.097327,0.47093 2.261581,1.22342 2.54152,1.64266 6.063891,3.14623 10.133168,4.32546 5.99137,1.73623 10.491443,2.34771 10.338559,1.40482 -0.03073,-0.18948 -0.302027,-1.53946 -0.602896,-2.99996 -1.054307,-5.11784 -0.472168,-8.27054 0.772499,-4.18364 0.395375,1.29824 1.423878,3.80695 2.285557,5.57493 l 1.566689,3.21448 -3.533297,-0.28613 c -1.943316,-0.15738 -6.097339,-0.26804 -9.231165,-0.24592 -8.422316,0.0594 -14.141208,0.98829 -20.8502207,3.38642 -1.8834492,0.67323 -3.5019683,1.21895 -3.5967091,1.2127 -0.094741,-0.006 0.2138406,-0.33254 0.6857362,-0.72509 z m 45.7087486,-4.22675 c -0.09584,-0.39657 -0.276788,-1.04851 -0.4021,-1.44875 -0.165387,-0.52822 -0.05496,-0.78519 0.402824,-0.9374 0.346868,-0.11534 0.910252,-0.40799 1.251966,-0.65034 0.522611,-0.37065 0.675812,-0.34488 0.964527,0.16225 0.188775,0.33159 0.558922,0.6029 0.822546,0.6029 0.678964,0 1.013479,0.67784 0.558868,1.13245 -0.210869,0.21087 -0.383397,0.72596 -0.383397,1.14465 0,0.6738 -0.174654,0.7586 -1.520487,0.73826 -1.247636,-0.0188 -1.551757,-0.15238 -1.694747,-0.74402 z m 58.479502,-0.68283 c 0.20094,-1.07108 0.0958,-1.44323 -0.66257,-2.34446 -0.97774,-1.16198 -0.74884,-1.64004 0.79022,-1.65036 0.53092,-0.004 1.01811,-0.39738 1.4982,-1.21107 0.39129,-0.66318 0.81239,-1.19982 0.93579,-1.19252 0.12339,0.007 0.5369,0.51006 0.91891,1.11724 0.44324,0.70452 1.05623,1.16717 1.69414,1.27865 1.25903,0.22002 1.44206,0.73606 0.54804,1.54514 -0.50169,0.45402 -0.69741,1.06251 -0.69741,2.16823 0,1.44172 -0.0481,1.52089 -0.77515,1.27598 -1.00504,-0.33856 -2.62608,-0.33298 -3.66562,0.0126 -0.79312,0.26366 -0.81462,0.2269 -0.58455,-0.99945 z M 5.8201973,233.38828 c -0.020078,-0.16238 -0.011703,-0.69002 0.018611,-1.17253 0.030314,-0.48251 -0.2633201,-1.28211 -0.6525187,-1.7769 -0.9132815,-1.16105 -0.9020794,-1.21024 0.3375759,-1.48252 0.5748653,-0.12626 1.2903318,-0.60367 1.589926,-1.06091 0.6917851,-1.05579 1.2857909,-1.05656 1.7661542,-0.002 0.2288961,0.50237 0.7937003,0.92042 1.4333463,1.06091 1.143383,0.25113 1.359281,0.87424 0.538835,1.55515 -0.301512,0.25023 -0.516768,1.00206 -0.516768,1.80493 0,1.27352 -0.05775,1.35688 -0.7751518,1.11888 -1.0351708,-0.34343 -2.3610667,-0.35202 -3.1006074,-0.0201 -0.3315927,0.14883 -0.6193232,0.13774 -0.6394014,-0.0246 z m 89.3844767,-0.89814 c -0.08803,-0.14211 -0.06002,-0.42023 0.06224,-0.61804 0.122257,-0.19782 -0.03998,-0.75992 -0.360518,-1.24913 -0.480766,-0.73374 -0.501044,-0.94127 -0.115825,-1.18537 0.256841,-0.16274 0.641857,-0.29827 0.855599,-0.30117 0.213739,-0.003 0.633968,-0.3541 0.933838,-0.78043 l 0.545214,-0.77515 0.61647,0.73846 c 0.339054,0.40616 0.974379,0.84582 1.411827,0.97704 0.752131,0.22561 0.766177,0.28311 0.258384,1.0581 -0.295337,0.45074 -0.536977,1.18513 -0.536977,1.63197 0,0.75055 -0.133692,0.81052 -1.755106,0.78727 -0.965309,-0.0138 -1.827122,-0.14143 -1.915145,-0.28355 z m -31.736347,-3.79276 c -2.838375,-4.39289 -7.704688,-8.61072 -13.222736,-11.46068 -3.868876,-1.9982 -6.300634,-2.46556 -14.502478,-2.78728 -3.363298,-0.13192 -6.115087,-0.34778 -6.115087,-0.47967 0,-0.1319 1.665395,-0.379 3.700877,-0.54911 4.552179,-0.38044 4.841624,-0.79977 1.7592,-2.54862 -2.10444,-1.19398 -7.57618,-6.03891 -8.257096,-7.31122 -0.213389,-0.39872 0.768784,0.10843 2.481091,1.28111 4.796887,3.28517 7.424691,4.42442 15.043441,6.5219 1.752501,0.48247 4.232987,1.40512 5.512191,2.05033 2.135781,1.07725 7.767618,4.68478 10.826405,6.93496 0.696207,0.51215 1.410132,0.84201 1.586501,0.73301 0.17637,-0.109 0.412753,-2.17956 0.525295,-4.60124 0.30511,-6.56519 1.696694,-10.78661 4.530862,-13.7445 1.812853,-1.892 2.619338,-2.01348 1.570975,-0.23664 -0.413439,0.70072 -1.121404,2.25624 -1.573259,3.45671 -1.535948,4.08063 -1.963969,7.29858 -2.185608,16.43166 l -0.208402,8.58774 z m -13.65093,-0.16241 c -0.114223,-0.11422 -0.207679,-0.63778 -0.207679,-1.16346 0,-0.52568 -0.15503,-1.0516 -0.344512,-1.16871 -0.605028,-0.37392 -0.369368,-1.20579 0.341594,-1.20579 0.377358,0 0.879739,-0.31006 1.116405,-0.68902 0.236666,-0.37897 0.588264,-0.68903 0.781329,-0.68903 0.193064,0 0.544663,0.31006 0.781329,0.68903 0.236666,0.37896 0.739047,0.68902 1.116405,0.68902 0.710962,0 0.946622,0.83187 0.341594,1.20579 -0.189482,0.11711 -0.344512,0.65971 -0.344512,1.20579 0,1.16166 -0.261337,1.38637 -1.205792,1.03682 -0.378963,-0.14026 -1.021902,-0.13076 -1.428753,0.0211 -0.406848,0.15187 -0.833182,0.18267 -0.947408,0.0684 z m -31.963051,-1.99051 c -0.108097,-0.1081 -0.117527,-0.89755 -0.02096,-1.75433 0.158959,-1.41028 0.06733,-1.66948 -0.967708,-2.73736 -0.628811,-0.64877 -1.034737,-1.28814 -0.902059,-1.42082 0.132679,-0.13267 0.892478,-0.32878 1.688442,-0.4358 1.246013,-0.16752 1.554618,-0.38614 2.219811,-1.57261 0.424932,-0.75793 0.93944,-1.37805 1.143352,-1.37805 0.203911,0 0.717857,0.61881 1.142102,1.37513 0.424245,0.75632 1.077222,1.42123 1.451058,1.47759 2.564241,0.38655 2.750268,0.70069 1.307027,2.2071 -0.787711,0.8222 -0.911145,1.22274 -0.842233,2.73299 0.07241,1.58703 0.01658,1.7429 -0.541197,1.5108 -2.657424,-1.1058 -2.405633,-1.1041 -4.946336,-0.0335 -0.29412,0.12394 -0.623207,0.13691 -0.731304,0.0288 z m 53.804136,-3.74658 c 0,-0.42002 -0.183453,-0.94712 -0.407671,-1.17134 -0.224222,-0.22423 -0.340495,-0.44954 -0.258384,-0.50071 0.08211,-0.0512 0.621038,-0.42224 1.197623,-0.8246 1.014319,-0.70783 1.073155,-0.71147 1.813297,-0.11214 0.420729,0.34069 0.956676,0.6898 1.190992,0.7758 0.337277,0.12378 0.336316,0.25146 -0.0046,0.61284 -0.236852,0.25106 -0.430639,0.80013 -0.430639,1.22015 0,0.67541 -0.179164,0.76366 -1.550304,0.76366 -1.37114,0 -1.550304,-0.0883 -1.550304,-0.76366 z M 85.6728,215.71506 c -0.09318,-0.48463 -0.279516,-1.22997 -0.414069,-1.6563 -0.167987,-0.53227 -0.104073,-0.77516 0.203972,-0.77516 0.24674,0 0.810582,-0.34004 1.252987,-0.75566 l 0.804369,-0.75567 0.529288,0.75567 c 0.291109,0.41562 0.743894,0.75566 1.006192,0.75566 0.676924,0 1.010343,0.67856 0.556449,1.13246 -0.210869,0.21087 -0.383397,0.78767 -0.383397,1.28178 0,0.8463 -0.09815,0.89838 -1.693184,0.89838 -1.542407,0 -1.708265,-0.0785 -1.862607,-0.88116 z m -13.849269,-2.04429 c 0.1914,-1.13288 0.0915,-1.48012 -0.658741,-2.28964 -0.486396,-0.52483 -0.884356,-1.073 -0.884356,-1.21816 0,-0.14516 0.620122,-0.36869 1.378048,-0.49674 0.757926,-0.12805 1.378819,-0.33547 1.37976,-0.46092 0.001,-0.12546 0.360322,-0.67627 0.798627,-1.22402 l 0.796918,-0.99592 0.728253,1.2343 c 0.546755,0.92668 1.034601,1.29177 1.957466,1.4649 1.447673,0.27158 1.546731,0.76905 0.372744,1.87196 -0.733245,0.68885 -0.824803,1.00265 -0.636365,2.18107 0.212998,1.33203 0.193381,1.368 -0.607705,1.11434 -1.58325,-0.50134 -2.986991,-0.59869 -3.219037,-0.22323 -0.128303,0.2076 -0.547815,0.37745 -0.932249,0.37745 -0.62088,0 -0.673769,-0.1492 -0.473363,-1.33539 z m 45.310529,0.26125 c 0,-0.49971 -0.23255,-1.10156 -0.51677,-1.33744 -0.74724,-0.62015 -0.63485,-1.29732 0.25838,-1.55678 0.42634,-0.12384 1.1159,-0.63055 1.53236,-1.12603 l 0.7572,-0.90086 0.71117,0.9041 c 0.39115,0.49726 1.18718,1.00866 1.76898,1.13644 l 1.0578,0.23233 -0.71749,0.76373 c -0.40073,0.42656 -0.71749,1.2241 -0.71749,1.80649 v 1.04276 l -2.06707,-0.0281 c -1.99679,-0.0271 -2.06707,-0.059 -2.06707,-0.93665 z m -18.765165,-2.02141 c -0.05608,-0.0975 -0.2028,-0.64824 -0.326042,-1.22382 -0.193148,-0.90207 -0.0724,-1.15866 0.874774,-1.85894 0.939804,-0.69482 1.153363,-0.73972 1.475483,-0.31018 0.20715,0.27623 0.64793,0.60404 0.97953,0.72846 0.66694,0.25025 0.79042,0.7803 0.25838,1.10912 -0.18948,0.11711 -0.34451,0.57148 -0.34451,1.00971 0,0.70874 -0.15557,0.79271 -1.407826,0.75987 -0.774301,-0.0203 -1.453706,-0.1167 -1.509789,-0.21422 z m -8.795792,-6.27453 c 0,-0.34656 -0.193788,-0.95832 -0.43064,-1.35947 -0.347844,-0.58913 -0.344126,-0.76059 0.01933,-0.89176 0.247483,-0.0893 0.737765,-0.47131 1.089519,-0.84887 0.637833,-0.68463 0.642632,-0.68431 1.789357,0.12012 0.632396,0.44362 1.210663,0.84212 1.285033,0.88555 0.07437,0.0434 -0.02704,0.2765 -0.225373,0.51794 -0.198329,0.24143 -0.414207,0.80558 -0.479733,1.25366 -0.101865,0.69658 -0.331434,0.82472 -1.583315,0.88382 -1.214063,0.0573 -1.464175,-0.0385 -1.464175,-0.56099 z M 40.99692,204.49815 c 0,-0.40105 -0.227616,-1.03012 -0.505812,-1.39793 -0.654883,-0.86583 -0.653612,-1.18551 0.0047,-1.18551 0.292835,0 0.927237,-0.39481 1.409777,-0.87735 l 0.877352,-0.87735 0.8131,0.87735 c 0.447204,0.48254 1.053049,0.87735 1.346318,0.87735 0.659092,0 0.66057,0.31942 0.0055,1.18551 -0.278197,0.36781 -0.505812,0.99688 -0.505812,1.39793 0,0.64534 -0.198053,0.72918 -1.72256,0.72918 -1.524507,0 -1.72256,-0.0838 -1.72256,-0.72918 z m 19.63718,-4.05138 c 0,-0.66208 -0.232545,-1.39678 -0.516768,-1.63267 -0.730151,-0.60597 -0.641453,-1.37804 0.158314,-1.37804 0.371294,0 1.076414,-0.42634 1.56693,-0.94741 l 0.891845,-0.94741 0.701133,0.94741 c 0.385623,0.52107 0.989115,0.94741 1.341092,0.94741 0.922737,0 1.179898,0.63601 0.542114,1.34075 -0.302785,0.33458 -0.550517,1.11804 -0.550517,1.74103 0,1.01785 -0.07861,1.10779 -0.775151,0.88686 -0.426334,-0.13523 -1.007698,-0.24587 -1.29192,-0.24587 -0.284223,0 -0.865586,0.11064 -1.29192,0.24587 -0.702877,0.22294 -0.775152,0.13362 -0.775152,-0.95793 z m 45.82009,-0.68902 c 0,-0.66209 -0.23255,-1.39679 -0.51677,-1.63267 -0.74238,-0.61612 -0.63641,-1.37805 0.19168,-1.37805 0.38964,0 1.13456,-0.46654 1.65538,-1.03676 l 0.94694,-1.03677 0.76651,1.03677 c 0.42159,0.57022 1.07193,1.03676 1.44523,1.03676 0.81996,0 0.85883,0.43837 0.13659,1.54064 -0.29816,0.45505 -0.49195,1.18599 -0.43064,1.62431 0.0937,0.67014 -0.0256,0.78125 -0.7498,0.69831 -1.45119,-0.16619 -1.86529,-0.14985 -2.66997,0.10538 -0.70288,0.22294 -0.77515,0.13363 -0.77515,-0.95792 z M 78.893233,196.2506 c 0,-0.46252 -0.155031,-0.93676 -0.344512,-1.05387 -0.592661,-0.36628 -0.378795,-0.8653 0.516768,-1.20579 0.473703,-0.1801 0.861279,-0.48633 0.861279,-0.6805 0,-0.53161 1.027903,-0.42407 1.240436,0.12978 0.1019,0.26555 0.484611,0.5611 0.850466,0.65677 0.702732,0.18377 0.902735,1.08452 0.320682,1.44425 -0.189482,0.11711 -0.344512,0.51383 -0.344512,0.88161 0,0.56285 -0.245389,0.6687 -1.550304,0.6687 -1.413987,0 -1.550303,-0.074 -1.550303,-0.84095 z m -37.551801,-1.4178 c 0,-0.44066 -0.15503,-0.89701 -0.344512,-1.01412 -0.480274,-0.29682 -0.432087,-1.20579 0.06392,-1.20579 0.224639,0 0.768344,-0.33812 1.208231,-0.75137 l 0.799795,-0.75137 0.700003,0.75137 c 0.385006,0.41325 0.926514,0.75137 1.203356,0.75137 0.574099,0 0.674193,0.54277 0.158834,0.86128 -0.189481,0.11711 -0.344512,0.65097 -0.344512,1.18637 0,0.93847 -0.06191,0.97345 -1.722559,0.97345 -1.573276,0 -1.72256,-0.0694 -1.72256,-0.80119 z m -16.332438,0.28097 c -0.116401,-0.1164 -0.111205,-0.96874 0.01154,-1.89408 0.2095,-1.57928 0.15188,-1.75601 -0.939673,-2.88221 -0.965291,-0.99592 -1.075738,-1.25485 -0.650073,-1.52397 0.282033,-0.17832 0.848925,-0.32659 1.259762,-0.32949 1.29144,-0.009 1.845481,-0.39413 2.547565,-1.77032 0.374743,-0.73456 0.830079,-1.33556 1.011858,-1.33556 0.18178,0 0.637116,0.601 1.011859,1.33556 0.702084,1.37619 1.256125,1.7612 2.547565,1.77032 0.410837,0.003 0.977729,0.15117 1.259762,0.32949 0.425664,0.26912 0.315218,0.52805 -0.650073,1.52397 -1.091553,1.1262 -1.149173,1.30293 -0.939674,2.88221 0.122751,0.92534 0.127947,1.77768 0.01154,1.89408 -0.116401,0.1164 -0.89324,-0.11951 -1.726311,-0.52425 l -1.514672,-0.73588 -1.514673,0.73588 c -0.83307,0.40474 -1.60991,0.64065 -1.726311,0.52425 z"
         style="fill:#ed4850;stroke-width:0.34451193" />
      <path
         id="path3719"
         d="M 53.639085,292.30173 C 53.50723,292.16988 53.39935,286.81157 53.39935,280.39439 v -11.66761 l -7.604684,-3.7636 c -10.923764,-5.40623 -17.622796,-7.91337 -24.775343,-9.27227 -3.346647,-0.63583 -3.939547,-1.30549 -2.030083,-2.29291 1.401114,-0.72455 3.47115,-0.54285 10.940473,0.96028 4.641091,0.93397 6.142261,1.08632 10.894951,1.10563 4.547144,0.0185 5.843925,-0.0915 7.407007,-0.62844 2.8595,-0.9822 5.787021,-2.53712 6.188244,-3.28681 0.200195,-0.37406 0.357482,-2.88337 0.357482,-5.70314 0,-5.37707 0.26452,-6.49032 1.797247,-7.56389 1.17802,-0.82512 1.410645,-0.65789 1.170851,0.84171 -0.179763,1.12417 -0.02884,1.75918 0.815653,3.43213 3.860404,7.64742 5.459784,15.49951 4.458349,21.88815 -0.251235,1.60277 -0.516358,8.01817 -0.633557,15.33078 l -0.201536,12.57469 -4.152792,0.0962 c -2.284035,0.0529 -4.260672,-0.0117 -4.392527,-0.14355 z m 12.507206,-7.92441 c 0,-6.08805 -0.142228,-8.91874 -0.558819,-11.12179 -0.707276,-3.74029 -0.470128,-9.39326 0.557551,-13.29056 0.399713,-1.51585 1.447553,-4.3064 2.328532,-6.20122 1.178307,-2.5343 1.605447,-3.87775 1.615641,-5.08155 0.0076,-0.90003 0.09679,-1.63643 0.198149,-1.63643 0.516303,0 1.785581,1.20299 2.281854,2.16268 0.461832,0.89308 0.528723,1.79705 0.374468,5.06063 -0.103292,2.18533 -0.08075,4.35307 0.05008,4.8172 0.291668,1.03467 2.495224,2.37655 5.742611,3.49702 3.623167,1.25014 9.791584,1.1316 17.154093,-0.32966 5.593659,-1.11019 9.064589,-1.35631 10.241869,-0.72625 0.90278,0.48316 0.84208,1.31966 -0.10877,1.49901 -8.109763,1.5296 -14.762798,3.9157 -24.450991,8.76929 l -7.330238,3.67232 -0.172256,8.44054 -0.172256,8.44054 -3.87576,0.0974 -3.875759,0.0974 z m 17.193523,-22.51414 c -1.438755,-0.14114 -3.443931,-0.53165 -4.455952,-0.86779 l -1.840035,-0.61116 1.269217,-1.0182 c 0.698067,-0.56001 1.269212,-1.18895 1.269212,-1.39764 0,-1.06234 1.79016,-6.04209 2.412011,-6.70956 0.870561,-0.93444 1.90326,-1.04785 1.567206,-0.1721 -0.477043,1.24316 -1.178545,7.84957 -0.866879,8.16385 0.472009,0.47595 1.522426,-0.62092 3.858544,-4.02919 2.158027,-3.14844 3.486875,-4.38599 4.709579,-4.38599 0.96084,0 0.925676,0.176 -0.511277,2.55907 -1.745793,2.89526 -3.666451,6.78106 -3.45582,6.99169 0.462101,0.4621 1.995424,-0.43723 4.51681,-2.64924 3.589036,-3.14864 6.940548,-4.84155 7.828031,-3.95407 0.286434,0.28643 -6.511441,6.78491 -7.770859,7.42861 -1.369256,0.69984 -5.118944,0.98633 -8.529788,0.65172 z m -46.673716,-7.90621 c -0.96084,-0.15135 -2.123568,-0.47158 -2.583839,-0.71162 -0.78483,-0.4093 -8.281244,-7.44641 -8.530957,-8.00827 -0.06316,-0.14211 0.410248,-0.25838 1.05202,-0.25838 1.687684,0 4.204263,1.40213 7.158847,3.98858 3.303357,2.89178 4.749201,3.80245 5.246883,3.30477 0.26803,-0.26803 -0.406669,-1.76169 -2.392932,-5.29749 -1.521413,-2.70832 -2.656165,-5.04624 -2.521667,-5.1954 0.338546,-0.37543 2.086256,0.3347 3.055581,1.24155 0.442212,0.41371 1.974574,2.41878 3.405242,4.4557 1.765707,2.51394 2.813175,3.70351 3.261099,3.70351 0.604232,0 0.640544,-0.18158 0.430619,-2.1532 -0.126095,-1.18426 -0.426688,-3.31593 -0.667988,-4.73704 -0.2413,-1.42111 -0.310402,-2.72158 -0.153559,-2.88993 0.160938,-0.17274 0.730696,0.13944 1.307888,0.71664 0.958321,0.95832 2.046225,3.78392 2.683306,6.96932 0.154366,0.77184 0.651907,1.43731 1.574013,2.10528 1.264046,0.91567 1.30546,0.99962 0.66279,1.34357 -2.100028,1.1239 -9.639951,1.9497 -12.987346,1.42241 z m 29.259661,-6.89818 c 0.287278,-3.09099 1.856116,-7.73985 3.527357,-10.45243 0.723558,-1.1744 2.530696,-3.82594 4.015859,-5.89231 2.962706,-4.12214 5.056653,-7.55843 6.126035,-10.05319 0.381471,-0.88994 0.77682,-1.53484 0.878547,-1.43311 0.266353,0.26635 -0.490754,5.47598 -1.076207,7.40537 -0.973039,3.20668 -0.7074,3.2236 3.821285,0.2434 4.805135,-3.16213 9.51318,-5.44999 14.212065,-6.9063 2.215435,-0.68662 5.0625,-1.78725 6.32681,-2.44584 2.55051,-1.32859 6.72536,-4.75453 8.50184,-6.97673 0.63483,-0.79412 1.23614,-1.36196 1.33624,-1.26187 0.37824,0.37825 -2.06084,3.62074 -4.4676,5.93919 -4.35938,4.19942 -7.38968,5.87387 -16.109768,8.90176 -3.126446,1.0856 -7.07972,2.67096 -8.785054,3.52301 -8.808816,4.40124 -14.085936,10.26253 -17.230286,19.13765 -0.520265,1.46848 -1.025612,2.66997 -1.122992,2.66997 -0.09738,0 -0.07674,-1.07936 0.04587,-2.39857 z m 35.705261,0.81707 c -2.179038,-0.4361 -4.865828,-0.8915 -5.970647,-1.01201 -1.962591,-0.21408 -1.994837,-0.2345 -1.403111,-0.88835 0.797983,-0.88177 4.471397,-2.66334 5.995708,-2.90788 l 1.20579,-0.19344 -1.32761,0.69519 c -1.785137,0.93476 -2.289761,1.38789 -2.289761,2.05607 0,0.42574 0.901863,0.79648 3.712021,1.52595 2.0416,0.52996 3.94073,1.1082 4.22027,1.28498 0.6287,0.39758 0.67813,0.40427 -4.14266,-0.56051 z M 4.8198794,239.76339 c 2.0211316,-1.68132 7.1873866,-3.66895 12.7502296,-4.90544 2.327241,-0.51729 3.650686,-0.97541 3.710775,-1.28449 0.05295,-0.27234 -0.606619,-0.85036 -1.522854,-1.33458 -1.605804,-0.84863 -5.444576,-4.10005 -5.167652,-4.37698 0.07962,-0.0796 1.097327,0.47093 2.261581,1.22342 2.54152,1.64266 6.063891,3.14623 10.133168,4.32546 5.99137,1.73623 10.491443,2.34771 10.338559,1.40482 -0.03073,-0.18948 -0.302027,-1.53946 -0.602896,-2.99996 -1.054307,-5.11784 -0.472168,-8.27054 0.772499,-4.18364 0.395375,1.29824 1.423878,3.80695 2.285557,5.57493 l 1.566689,3.21448 -3.533297,-0.28613 c -1.943316,-0.15738 -6.097339,-0.26804 -9.231165,-0.24592 -8.422316,0.0594 -14.141208,0.98829 -20.8502207,3.38642 -1.8834492,0.67323 -3.5019683,1.21895 -3.5967091,1.2127 -0.094741,-0.006 0.2138406,-0.33254 0.6857362,-0.72509 z M 63.468327,228.69738 c -2.838375,-4.39289 -7.704688,-8.61072 -13.222736,-11.46068 -3.868876,-1.9982 -6.300634,-2.46556 -14.502478,-2.78728 -3.363298,-0.13192 -6.115087,-0.34778 -6.115087,-0.47967 0,-0.1319 1.665395,-0.379 3.700877,-0.54911 4.552179,-0.38044 4.841624,-0.79977 1.7592,-2.54862 -2.10444,-1.19398 -7.57618,-6.03891 -8.257096,-7.31122 -0.213389,-0.39872 0.768784,0.10843 2.481091,1.28111 4.796887,3.28517 7.424691,4.42442 15.043441,6.5219 1.752501,0.48247 4.232987,1.40512 5.512191,2.05033 2.135781,1.07725 7.767618,4.68478 10.826405,6.93496 0.696207,0.51215 1.410132,0.84201 1.586501,0.73301 0.17637,-0.109 0.412753,-2.17956 0.525295,-4.60124 0.30511,-6.56519 1.696694,-10.78661 4.530862,-13.7445 1.812853,-1.892 2.619338,-2.01348 1.570975,-0.23664 -0.413439,0.70072 -1.121404,2.25624 -1.573259,3.45671 -1.535948,4.08063 -1.963969,7.29858 -2.185608,16.43166 l -0.208402,8.58774 z"
         style="fill:#036ba1;stroke-width:0.34451193" />
    </g>
  </g>
</svg>
